#!OML:ASF G:\JayActor3\Patient Classification 1\Patient 1\Session 6\male.ASF
:FULLY-SPECIFIED
:DEGREES
952
root -35.4042 16.3526 -10.9014 -545.623 2.8893 181.691
lowerback 1.69715 -0.166471 2.46564
upperback 3.28035 -0.0827788 -0.616562
thorax 2.41059 0.0800512 -2.0132
lowerneck -8.19544 0.248585 1.69694
upperneck 10.9257 0.0297171 2.06984
head 4.62165 0.279071 0.36879
rclavicle 3.93842e-015 1.19271e-015
rhumerus -31.7583 -2.28384 -86.9954
rradius 29.0287
rwrist 5.21864
rhand -18.448 -11.0901
rfingers 7.12502
rthumb 7.83791 -40.9249
lclavicle 3.93842e-015 1.19271e-015
lhumerus -29.6724 13.1473 78.7008
lradius 28.7414
lwrist 17.4356
lhand -22.1262 14.4003
lfingers 7.12502
lthumb 4.28688 44.3369
rfemur -18.4714 1.5807 22.8439
rtibia 66.6667
rfoot -16.2269 -15.0485
rtoes -18.1671
lfemur -12.8691 11.2453 -19.7313
ltibia 27.1649
lfoot -8.13375 4.87265
ltoes -42.3058
953
root -35.3988 16.3513 -10.9954 -545.526 2.58814 181.658
lowerback 1.68754 -0.253247 2.24958
upperback 3.24259 -0.202057 -0.580769
thorax 2.37093 0.0127711 -1.8556
lowerneck -8.20708 0.244595 1.71042
upperneck 10.9415 0.0224596 2.07042
head 4.62852 0.276638 0.366407
rclavicle 1.00324e-014 4.37326e-015
rhumerus -31.8792 -2.48769 -86.7878
rradius 29.0355
rwrist 5.04605
rhand -18.4467 -11.1216
rfingers 7.12502
rthumb 7.83922 -40.9563
lclavicle 1.00324e-014 4.37326e-015
lhumerus -29.3531 12.3649 79.0454
lradius 29.703
lwrist 17.9498
lhand -22.1755 14.3768
lfingers 7.12502
lthumb 4.23926 44.3144
rfemur -19.0393 2.02014 22.6981
rtibia 65.2663
rfoot -16.8715 -15.8043
rtoes -17.3743
lfemur -12.8299 11.1198 -19.7876
ltibia 27.4946
lfoot -8.52205 4.97679
ltoes -42.3074
954
root -35.3924 16.3487 -11.088 -545.417 2.24868 181.624
lowerback 1.67586 -0.340324 2.03799
upperback 3.19648 -0.322105 -0.551833
thorax 2.32488 -0.0549025 -1.70755
lowerneck -8.20419 0.225343 1.7209
upperneck 10.9304 -0.00655694 2.08957
head 4.62474 0.263982 0.368737
rclavicle 3.3607e-015 -6.36111e-015
rhumerus -32.0141 -2.76751 -86.5703
rradius 29.0527
rwrist 4.90262
rhand -18.4385 -11.1606
rfingers 7.12502
rthumb 7.84716 -40.9949
lclavicle 3.3607e-015 -6.36111e-015
lhumerus -29.0429 11.5541 79.3714
lradius 30.6809
lwrist 18.4756
lhand -22.181 14.3583
lfingers 7.12502
lthumb 4.23398 44.296
rfemur -19.5426 2.46584 22.5196
rtibia 63.7382
rfoot -17.3805 -16.269
rtoes -16.5995
lfemur -12.8153 10.9848 -19.8497
ltibia 27.8288
lfoot -8.9343 5.0274
ltoes -42.3286
955
root -35.3853 16.3451 -11.1793 -545.302 1.88068 181.595
lowerback 1.66509 -0.427653 1.84312
upperback 3.14689 -0.442476 -0.528909
thorax 2.27568 -0.122215 -1.575
lowerneck -8.19144 0.197998 1.73168
upperneck 10.896 -0.047247 2.11752
head 4.61217 0.245578 0.372893
rclavicle 2.34193e-015 9.93923e-015
rhumerus -32.1698 -3.04756 -86.3688
rradius 29.0932
rwrist 4.74144
rhand -18.4411 -11.2006
rfingers 7.12502
rthumb 7.84459 -41.0351
lclavicle 2.34193e-015 9.93923e-015
lhumerus -28.7358 10.7219 79.6764
lradius 31.6657
lwrist 19.0016
lhand -22.155 14.3425
lfingers 7.12502
lthumb 4.2591 44.2797
rfemur -19.9734 2.93406 22.3144
rtibia 62.0934
rfoot -17.7429 -16.3654
rtoes -16.0369
lfemur -12.8137 10.8336 -19.9069
ltibia 28.166
lfoot -9.3506 5.06326
ltoes -42.3978
956
root -35.3778 16.3409 -11.2697 -545.191 1.50004 181.583
lowerback 1.65775 -0.508582 1.68387
upperback 3.10124 -0.553772 -0.511103
thorax 2.22962 -0.183726 -1.46759
lowerneck -8.17849 0.161246 1.73837
upperneck 10.8439 -0.101625 2.15841
head 4.59422 0.220648 0.380791
rclavicle -2.77056e-015 -1.59028e-015
rhumerus -32.3281 -3.40685 -86.1601
rradius 29.1267
rwrist 4.64843
rhand -18.4484 -11.2244
rfingers 7.12502
rthumb 7.83758 -41.0591
lclavicle -2.77056e-015 -1.59028e-015
lhumerus -28.42 9.86906 79.9616
lradius 32.6481
lwrist 19.5203
lhand -22.1123 14.3252
lfingers 7.12502
lthumb 4.3003 44.2616
rfemur -20.3206 3.45136 22.0982
rtibia 60.3472
rfoot -17.994 -16.0589
rtoes -15.7366
lfemur -12.8057 10.6648 -19.9417
ltibia 28.5056
lfoot -9.78467 5.0476
ltoes -42.5373
957
root -35.3708 16.3365 -11.3605 -545.111 1.14366 181.58
lowerback 1.65266 -0.573496 1.57229
upperback 3.07379 -0.642259 -0.50348
thorax 2.20198 -0.231683 -1.39734
lowerneck -8.15924 0.112468 1.749
upperneck 10.7664 -0.173107 2.204
head 4.56748 0.187078 0.38834
rclavicle -1.86361e-016 7.95139e-016
rhumerus -32.4983 -3.74631 -85.9779
rradius 29.1763
rwrist 4.5484
rhand -18.4748 -11.2469
rfingers 7.12502
rthumb 7.81204 -41.0826
lclavicle -1.86361e-016 7.95139e-016
lhumerus -28.0894 9.00968 80.2227
lradius 33.6195
lwrist 20.0269
lhand -22.0775 14.3078
lfingers 7.12502
lthumb 4.33391 44.2434
rfemur -20.5566 4.05646 21.8728
rtibia 58.5182
rfoot -18.1761 -15.4054
rtoes -15.8245
lfemur -12.7508 10.4498 -19.9561
ltibia 28.8403
lfoot -10.2154 5.0709
ltoes -42.6868
958
root -35.3642 16.332 -11.4514 -545.058 0.814189 181.593
lowerback 1.64741 -0.620958 1.50672
upperback 3.06247 -0.706314 -0.500925
thorax 2.19172 -0.26558 -1.35808
lowerneck -8.13834 0.0569081 1.7538
upperneck 10.6752 -0.253707 2.25693
head 4.53635 0.14885 0.398518
rclavicle 7.01958e-015 1.59028e-015
rhumerus -32.6766 -4.09691 -85.8073
rradius 29.2284
rwrist 4.48727
rhand -18.5076 -11.2594
rfingers 7.12502
rthumb 7.78041 -41.0962
lclavicle 7.01958e-015 1.59028e-015
lhumerus -27.7386 8.16127 80.4618
lradius 34.5643
lwrist 20.4879
lhand -22.0569 14.3006
lfingers 7.12502
lthumb 4.35381 44.2359
rfemur -20.6897 4.77705 21.6582
rtibia 56.6321
rfoot -18.3731 -14.4771
rtoes -16.2096
lfemur -12.6356 10.1694 -19.9347
ltibia 29.1626
lfoot -10.6578 5.10221
ltoes -42.2266
959
root -35.3579 16.328 -11.5423 -545.03 0.507999 181.62
lowerback 1.63764 -0.654358 1.48227
upperback 3.06764 -0.750591 -0.502391
thorax 2.20127 -0.287902 -1.34611
lowerneck -8.12069 0.00100474 1.73768
upperneck 10.5792 -0.333787 2.32445
head 4.50438 0.110741 0.416655
rclavicle -3.83903e-015 4.77083e-015
rhumerus -32.8635 -4.40411 -85.6655
rradius 29.2884
rwrist 4.42351
rhand -18.5667 -11.2772
rfingers 7.12502
rthumb 7.72336 -41.1161
lclavicle -3.83903e-015 4.77083e-015
lhumerus -27.37 7.33202 80.678
lradius 35.4801
lwrist 20.9041
lhand -22.0454 14.2861
lfingers 7.12502
lthumb 4.36497 44.2211
rfemur -20.7252 5.59263 21.4544
rtibia 54.7184
rfoot -18.6651 -13.384
rtoes -16.716
lfemur -12.4528 9.82573 -19.8801
ltibia 29.46
lfoot -11.1193 5.12501
ltoes -40.9014
960
root -35.3513 16.3248 -11.6323 -545.017 0.213927 181.663
lowerback 1.62261 -0.676 1.48909
upperback 3.0835 -0.778606 -0.504687
thorax 2.22496 -0.300923 -1.35261
lowerneck -8.09525 -0.0619428 1.70205
upperneck 10.4707 -0.42216 2.40801
head 4.46743 0.0684065 0.442391
rclavicle 2.6339e-015 -1.23246e-014
rhumerus -33.0627 -4.62963 -85.5625
rradius 29.3638
rwrist 4.3195
rhand -18.6433 -11.3111
rfingers 7.12502
rthumb 7.64941 -41.1528
lclavicle 2.6339e-015 -1.23246e-014
lhumerus -26.9805 6.52219 80.8738
lradius 36.3557
lwrist 21.2779
lhand -22.0507 14.2555
lfingers 7.12502
lthumb 4.35977 44.1907
rfemur -20.6848 6.46847 21.2679
rtibia 52.8122
rfoot -19.0657 -12.2757
rtoes -17.3434
lfemur -12.2185 9.47094 -19.7914
ltibia 29.7235
lfoot -11.5901 5.08258
ltoes -38.7553
961
root -35.3439 16.3228 -11.7206 -545.009 -0.0830816 181.723
lowerback 1.59936 -0.545686 1.52276
upperback 3.10599 -0.834449 -0.500092
thorax 2.26149 -0.42598 -1.37131
lowerneck -8.07068 -0.126103 1.65514
upperneck 10.3653 -0.511237 2.49809
head 4.43174 0.0257382 0.471978
rclavicle -2.80783e-015 -1.19271e-015
rhumerus -33.2651 -4.77168 -85.5016
rradius 29.4404
rwrist 4.18726
rhand -18.7318 -11.3564
rfingers 7.12502
rthumb 7.56404 -41.2012
lclavicle -2.80783e-015 -1.19271e-015
lhumerus -26.5738 5.74487 81.0455
lradius 37.1876
lwrist 21.597
lhand -22.0817 14.2128
lfingers 7.12502
lthumb 4.32992 44.1485
rfemur -20.588 7.39178 21.1038
rtibia 50.951
rfoot -19.5917 -11.3268
rtoes -17.9237
lfemur -11.9555 9.12632 -19.6726
ltibia 29.9471
lfoot -12.0439 4.96158
ltoes -36.0158
962
root -35.3347 16.3218 -11.8062 -544.995 -0.393906 181.793
lowerback 1.57244 -0.561059 1.55392
upperback 3.12412 -0.855869 -0.499624
thorax 2.29421 -0.435731 -1.3889
lowerneck -8.07917 -0.201164 1.58323
upperneck 9.91673 -0.604413 2.56353
head 4.77205 -0.029781 0.555932
rclavicle 2.3233e-015 -3.18055e-015
rhumerus -33.4649 -4.87429 -85.4678
rradius 29.5002
rwrist 4.06331
rhand -18.8155 -11.3873
rfingers 7.12502
rthumb 7.48326 -41.235
lclavicle 2.3233e-015 -3.18055e-015
lhumerus -26.1528 5.00294 81.1922
lradius 37.9696
lwrist 21.8668
lhand -22.1136 14.1611
lfingers 7.12502
lthumb 4.29908 44.0974
rfemur -20.4601 8.3285 20.9629
rtibia 49.1713
rfoot -20.2148 -10.6886
rtoes -18.4668
lfemur -11.6934 8.83977 -19.5309
ltibia 30.1305
lfoot -12.4683 4.74472
ltoes -33.2555
963
root -35.3236 16.3216 -11.8889 -544.978 -0.728987 181.87
lowerback 1.54447 -0.585135 1.5805
upperback 3.13696 -0.888638 -0.492075
thorax 2.3218 -0.451245 -1.39667
lowerneck -8.01866 -0.270562 1.51021
upperneck 9.80818 -0.696299 2.66492
head 4.7212 -0.074636 0.596739
rclavicle -1.2424e-015 -6.36111e-015
rhumerus -33.6438 -4.98962 -85.4331
rradius 29.5086
rwrist 4.02052
rhand -18.8797 -11.3918
rfingers 7.12502
rthumb 7.42127 -41.2416
lclavicle -1.2424e-015 -6.36111e-015
lhumerus -25.7277 4.31118 81.3195
lradius 38.7024
lwrist 22.0982
lhand -22.1761 14.1002
lfingers 7.12502
lthumb 4.23873 44.0378
rfemur -20.3087 9.26227 20.8445
rtibia 47.5054
rfoot -20.9083 -10.4002
rtoes -18.8219
lfemur -11.4478 8.63768 -19.3755
ltibia 30.2769
lfoot -12.8405 4.44602
ltoes -31.1484
964
root -35.3108 16.3223 -11.9685 -544.954 -1.08136 181.95
lowerback 1.51719 -0.6117 1.59962
upperback 3.14427 -0.924353 -0.483277
thorax 2.34328 -0.468345 -1.39895
lowerneck -7.95497 -0.340908 1.44583
upperneck 9.70957 -0.789123 2.75636
head 4.67357 -0.119914 0.632626
rclavicle -1.0312e-015 -2.38542e-015
rhumerus -33.7912 -5.17529 -85.3878
rradius 29.4497
rwrist 4.09612
rhand -18.9123 -11.3652
rfingers 7.12502
rthumb 7.38977 -41.2161
lclavicle -1.0312e-015 -2.38542e-015
lhumerus -25.2925 3.66677 81.4257
lradius 39.3779
lwrist 22.2829
lhand -22.2697 14.0281
lfingers 7.12502
lthumb 4.14829 43.9675
rfemur -20.1541 10.0903 20.7459
rtibia 45.9781
rfoot -21.5521 -10.4727
rtoes -19.2101
lfemur -11.2264 8.50902 -19.2115
ltibia 30.3909
lfoot -13.1393 4.18413
ltoes -29.9432
965
root -35.2976 16.3237 -12.0466 -544.945 -1.42855 182.018
lowerback 1.48941 -0.632028 1.62048
upperback 3.15687 -0.952009 -0.483052
thorax 2.37062 -0.481324 -1.41107
lowerneck -7.88755 -0.41495 1.39268
upperneck 9.61559 -0.887008 2.83882
head 4.62708 -0.16763 0.663165
rclavicle 1.35422e-015 -5.56597e-015
rhumerus -33.913 -5.35727 -85.3585
rradius 29.3478
rwrist 4.20118
rhand -18.9159 -11.3224
rfingers 7.12502
rthumb 7.3863 -41.1735
lclavicle 1.35422e-015 -5.56597e-015
lhumerus -24.8484 3.0542 81.5113
lradius 40.0002
lwrist 22.442
lhand -22.3792 13.9465
lfingers 7.12502
lthumb 4.04257 43.8879
rfemur -19.9835 10.8042 20.6575
rtibia 44.6107
rfoot -22.0948 -10.8287
rtoes -19.5851
lfemur -11.0043 8.42119 -19.0622
ltibia 30.4742
lfoot -13.3749 4.02222
ltoes -29.8867
966
root -35.284 16.3253 -12.1228 -544.943 -1.77255 182.068
lowerback 1.46087 -0.644703 1.63971
upperback 3.17262 -0.969527 -0.492788
thorax 2.40185 -0.489169 -1.43253
lowerneck -7.8315 -0.4858 1.33251
upperneck 9.54289 -0.980148 2.92225
head 4.591 -0.212632 0.695829
rclavicle 1.2424e-016 -3.57812e-015
rhumerus -34.0151 -5.49873 -85.3554
rradius 29.2219
rwrist 4.29304
rhand -18.8849 -11.2942
rfingers 7.12502
rthumb 7.41623 -41.1443
lclavicle 1.2424e-016 -3.57812e-015
lhumerus -24.3948 2.47899 81.5824
lradius 40.5664
lwrist 22.56
lhand -22.4931 13.8664
lfingers 7.12502
lthumb 3.93261 43.8099
rfemur -19.8091 11.3699 20.5757
rtibia 43.4247
rfoot -22.4697 -11.2912
rtoes -19.8379
lfemur -10.774 8.34708 -18.9304
ltibia 30.5261
lfoot -13.5651 3.94548
ltoes -30.1659
